<svg xmlns="http://www.w3.org/2000/svg" style="display:none">
  <symbol id="ic-activity" viewBox="0 0 24 24" fill="none" stroke="currentColor" stroke-width="2">
    <polyline points="22 12 18 12 15 21 9 3 6 12 2 12"/>
  </symbol>
  <symbol id="ic-layers" viewBox="0 0 24 24" fill="none" stroke="currentColor" stroke-width="2">
    <polygon points="12 2 2 7 12 12 22 7 12 2"/>
    <polyline points="2 12 12 17 22 12"/>
    <polyline points="2 17 12 22 22 17"/>
  </symbol>
  <symbol id="ic-chat" viewBox="0 0 24 24" fill="none" stroke="currentColor" stroke-width="2">
    <path d="M21 15a4 4 0 0 1-4 4H7l-4 4V7a4 4 0 0 1 4-4h10a4 4 0 0 1 4 4z"/>
    <line x1="8" y1="9" x2="16" y2="9"/><line x1="8" y1="13" x2="14" y2="13"/>
  </symbol>
  <symbol id="ic-file" viewBox="0 0 24 24" fill="none" stroke="currentColor" stroke-width="2">
    <path d="M14 2H6a2 2 0 0 0-2 2v16a2 2 0 0 0 2 2h12a2 2 0 0 0 2-2V8z"/>
    <polyline points="14 2 14 8 20 8"/>
  </symbol>
  <symbol id="ic-live" viewBox="0 0 24 24" fill="currentColor" stroke="none">
    <circle cx="12" cy="12" r="6"/>
  </symbol>
</svg>